<mxfile host="app.diagrams.net" agent="Mozilla/5.0 (Windows NT 10.0; Win64; x64) AppleWebKit/537.36 (KHTML, like Gecko) Chrome/140.0.0.0 Safari/537.36" version="28.2.5">
  <diagram name="Страница — 1" id="TB0GrTfzd8GCSQmflgjX">
    <mxGraphModel dx="1303" dy="1872" grid="1" gridSize="10" guides="1" tooltips="1" connect="1" arrows="1" fold="1" page="1" pageScale="1" pageWidth="827" pageHeight="1169" math="0" shadow="0">
      <root>
        <mxCell id="0" />
        <mxCell id="1" parent="0" />
        <mxCell id="sVjr9DV75I62hmYHdk1i-2" value="Заявки" style="swimlane;fontStyle=0;childLayout=stackLayout;horizontal=1;startSize=30;horizontalStack=0;resizeParent=1;resizeParentMax=0;resizeLast=0;collapsible=1;marginBottom=0;whiteSpace=wrap;html=1;" parent="1" vertex="1">
          <mxGeometry x="24" y="65" width="140" height="90" as="geometry">
            <mxRectangle x="40" y="40" width="130" height="30" as="alternateBounds" />
          </mxGeometry>
        </mxCell>
        <mxCell id="sVjr9DV75I62hmYHdk1i-3" value="Номер заявки (PK)" style="text;strokeColor=none;fillColor=none;align=left;verticalAlign=middle;spacingLeft=4;spacingRight=4;overflow=hidden;points=[[0,0.5],[1,0.5]];portConstraint=eastwest;rotatable=0;whiteSpace=wrap;html=1;" parent="sVjr9DV75I62hmYHdk1i-2" vertex="1">
          <mxGeometry y="30" width="140" height="30" as="geometry" />
        </mxCell>
        <mxCell id="sVjr9DV75I62hmYHdk1i-4" value="Дата заявки" style="text;strokeColor=none;fillColor=none;align=left;verticalAlign=middle;spacingLeft=4;spacingRight=4;overflow=hidden;points=[[0,0.5],[1,0.5]];portConstraint=eastwest;rotatable=0;whiteSpace=wrap;html=1;" parent="sVjr9DV75I62hmYHdk1i-2" vertex="1">
          <mxGeometry y="60" width="140" height="30" as="geometry" />
        </mxCell>
        <mxCell id="7sMg7sJDzFcKfcrFsc0W-3" value="" style="endArrow=none;html=1;rounded=0;exitX=-0.014;exitY=0.044;exitDx=0;exitDy=0;exitPerimeter=0;" parent="sVjr9DV75I62hmYHdk1i-2" source="sVjr9DV75I62hmYHdk1i-4" edge="1">
          <mxGeometry width="50" height="50" relative="1" as="geometry">
            <mxPoint x="340" y="90" as="sourcePoint" />
            <mxPoint x="143" y="60" as="targetPoint" />
            <Array as="points">
              <mxPoint x="70" y="60" />
            </Array>
          </mxGeometry>
        </mxCell>
        <mxCell id="sVjr9DV75I62hmYHdk1i-6" value="Каталог товаров" style="swimlane;fontStyle=0;childLayout=stackLayout;horizontal=1;startSize=30;horizontalStack=0;resizeParent=1;resizeParentMax=0;resizeLast=0;collapsible=1;marginBottom=0;whiteSpace=wrap;html=1;" parent="1" vertex="1">
          <mxGeometry x="500" y="130" width="140" height="160" as="geometry">
            <mxRectangle x="480" width="70" height="30" as="alternateBounds" />
          </mxGeometry>
        </mxCell>
        <mxCell id="sVjr9DV75I62hmYHdk1i-7" value="Код товара(PK)" style="text;strokeColor=none;fillColor=none;align=left;verticalAlign=middle;spacingLeft=4;spacingRight=4;overflow=hidden;points=[[0,0.5],[1,0.5]];portConstraint=eastwest;rotatable=0;whiteSpace=wrap;html=1;" parent="sVjr9DV75I62hmYHdk1i-6" vertex="1">
          <mxGeometry y="30" width="140" height="30" as="geometry" />
        </mxCell>
        <mxCell id="sVjr9DV75I62hmYHdk1i-8" value="Наименование товара" style="text;strokeColor=none;fillColor=none;align=left;verticalAlign=middle;spacingLeft=4;spacingRight=4;overflow=hidden;points=[[0,0.5],[1,0.5]];portConstraint=eastwest;rotatable=0;whiteSpace=wrap;html=1;" parent="sVjr9DV75I62hmYHdk1i-6" vertex="1">
          <mxGeometry y="60" width="140" height="30" as="geometry" />
        </mxCell>
        <mxCell id="gCJg0nlt5YbwezoJq0o4-13" value="Номер категории товара(FK)" style="text;strokeColor=none;fillColor=none;align=left;verticalAlign=middle;spacingLeft=4;spacingRight=4;overflow=hidden;points=[[0,0.5],[1,0.5]];portConstraint=eastwest;rotatable=0;whiteSpace=wrap;html=1;" parent="sVjr9DV75I62hmYHdk1i-6" vertex="1">
          <mxGeometry y="90" width="140" height="30" as="geometry" />
        </mxCell>
        <mxCell id="sVjr9DV75I62hmYHdk1i-9" value="Цена товара" style="text;strokeColor=none;fillColor=none;align=left;verticalAlign=middle;spacingLeft=4;spacingRight=4;overflow=hidden;points=[[0,0.5],[1,0.5]];portConstraint=eastwest;rotatable=0;whiteSpace=wrap;html=1;" parent="sVjr9DV75I62hmYHdk1i-6" vertex="1">
          <mxGeometry y="120" width="140" height="40" as="geometry" />
        </mxCell>
        <mxCell id="7sMg7sJDzFcKfcrFsc0W-4" value="" style="endArrow=none;html=1;rounded=0;entryX=0.99;entryY=-0.067;entryDx=0;entryDy=0;entryPerimeter=0;exitX=0;exitY=-0.022;exitDx=0;exitDy=0;exitPerimeter=0;" parent="sVjr9DV75I62hmYHdk1i-6" source="sVjr9DV75I62hmYHdk1i-8" target="sVjr9DV75I62hmYHdk1i-8" edge="1">
          <mxGeometry width="50" height="50" relative="1" as="geometry">
            <mxPoint x="-100" y="130" as="sourcePoint" />
            <mxPoint x="-50" y="80" as="targetPoint" />
          </mxGeometry>
        </mxCell>
        <mxCell id="sVjr9DV75I62hmYHdk1i-10" value="Чеки" style="swimlane;fontStyle=0;childLayout=stackLayout;horizontal=1;startSize=30;horizontalStack=0;resizeParent=1;resizeParentMax=0;resizeLast=0;collapsible=1;marginBottom=0;whiteSpace=wrap;html=1;" parent="1" vertex="1">
          <mxGeometry x="240" y="190" width="140" height="210" as="geometry">
            <mxRectangle x="240" y="190" width="70" height="30" as="alternateBounds" />
          </mxGeometry>
        </mxCell>
        <mxCell id="sVjr9DV75I62hmYHdk1i-11" value="Номер чека(PK)" style="text;strokeColor=none;fillColor=none;align=left;verticalAlign=middle;spacingLeft=4;spacingRight=4;overflow=hidden;points=[[0,0.5],[1,0.5]];portConstraint=eastwest;rotatable=0;whiteSpace=wrap;html=1;" parent="sVjr9DV75I62hmYHdk1i-10" vertex="1">
          <mxGeometry y="30" width="140" height="30" as="geometry" />
        </mxCell>
        <mxCell id="7sMg7sJDzFcKfcrFsc0W-5" value="" style="endArrow=none;html=1;rounded=0;exitX=0.014;exitY=0.067;exitDx=0;exitDy=0;exitPerimeter=0;entryX=1.014;entryY=0;entryDx=0;entryDy=0;entryPerimeter=0;" parent="sVjr9DV75I62hmYHdk1i-10" edge="1">
          <mxGeometry width="50" height="50" relative="1" as="geometry">
            <mxPoint x="3.6415315207705135e-14" y="59.999999999999766" as="sourcePoint" />
            <mxPoint x="140.00000000000003" y="57.99" as="targetPoint" />
            <Array as="points">
              <mxPoint x="68.04" y="57.99" />
            </Array>
          </mxGeometry>
        </mxCell>
        <mxCell id="gCJg0nlt5YbwezoJq0o4-12" value="Номер способа оплаты (FK)" style="text;strokeColor=none;fillColor=none;align=left;verticalAlign=middle;spacingLeft=4;spacingRight=4;overflow=hidden;points=[[0,0.5],[1,0.5]];portConstraint=eastwest;rotatable=0;whiteSpace=wrap;html=1;" parent="sVjr9DV75I62hmYHdk1i-10" vertex="1">
          <mxGeometry y="60" width="140" height="30" as="geometry" />
        </mxCell>
        <mxCell id="sVjr9DV75I62hmYHdk1i-12" value="Дата продажи" style="text;strokeColor=none;fillColor=none;align=left;verticalAlign=middle;spacingLeft=4;spacingRight=4;overflow=hidden;points=[[0,0.5],[1,0.5]];portConstraint=eastwest;rotatable=0;whiteSpace=wrap;html=1;" parent="sVjr9DV75I62hmYHdk1i-10" vertex="1">
          <mxGeometry y="90" width="140" height="30" as="geometry" />
        </mxCell>
        <mxCell id="gCJg0nlt5YbwezoJq0o4-10" value="Номер кассы" style="text;strokeColor=none;fillColor=none;align=left;verticalAlign=middle;spacingLeft=4;spacingRight=4;overflow=hidden;points=[[0,0.5],[1,0.5]];portConstraint=eastwest;rotatable=0;whiteSpace=wrap;html=1;" parent="sVjr9DV75I62hmYHdk1i-10" vertex="1">
          <mxGeometry y="120" width="140" height="30" as="geometry" />
        </mxCell>
        <mxCell id="gCJg0nlt5YbwezoJq0o4-11" value="Итоговая сумма" style="text;strokeColor=none;fillColor=none;align=left;verticalAlign=middle;spacingLeft=4;spacingRight=4;overflow=hidden;points=[[0,0.5],[1,0.5]];portConstraint=eastwest;rotatable=0;whiteSpace=wrap;html=1;" parent="sVjr9DV75I62hmYHdk1i-10" vertex="1">
          <mxGeometry y="150" width="140" height="30" as="geometry" />
        </mxCell>
        <mxCell id="sVjr9DV75I62hmYHdk1i-13" value="&lt;font style=&quot;vertical-align: inherit;&quot; dir=&quot;auto&quot;&gt;&lt;font style=&quot;vertical-align: inherit;&quot; dir=&quot;auto&quot;&gt;Номер сотрудника&amp;nbsp;&lt;/font&gt;&lt;/font&gt;" style="text;strokeColor=none;fillColor=none;align=left;verticalAlign=middle;spacingLeft=4;spacingRight=4;overflow=hidden;points=[[0,0.5],[1,0.5]];portConstraint=eastwest;rotatable=0;whiteSpace=wrap;html=1;" parent="sVjr9DV75I62hmYHdk1i-10" vertex="1">
          <mxGeometry y="180" width="140" height="30" as="geometry" />
        </mxCell>
        <mxCell id="7sMg7sJDzFcKfcrFsc0W-24" value="&lt;font style=&quot;vertical-align: inherit;&quot; dir=&quot;auto&quot;&gt;&lt;font style=&quot;vertical-align: inherit;&quot; dir=&quot;auto&quot;&gt;Логическая модель предметной области&lt;/font&gt;&lt;/font&gt;" style="text;html=1;align=center;verticalAlign=middle;resizable=0;points=[];autosize=1;strokeColor=none;fillColor=none;" parent="1" vertex="1">
          <mxGeometry x="400" y="630" width="250" height="30" as="geometry" />
        </mxCell>
        <mxCell id="7sMg7sJDzFcKfcrFsc0W-77" value="Физическая модель предметной области" style="text;html=1;align=center;verticalAlign=middle;resizable=0;points=[];autosize=1;strokeColor=none;fillColor=none;" parent="1" vertex="1">
          <mxGeometry x="1006" y="1754" width="250" height="30" as="geometry" />
        </mxCell>
        <mxCell id="gCJg0nlt5YbwezoJq0o4-16" value="Накладные" style="swimlane;fontStyle=0;childLayout=stackLayout;horizontal=1;startSize=26;horizontalStack=0;resizeParent=1;resizeParentMax=0;resizeLast=0;collapsible=1;marginBottom=0;align=center;fontSize=14;" parent="1" vertex="1">
          <mxGeometry x="915" y="36" width="170" height="140" as="geometry" />
        </mxCell>
        <mxCell id="gCJg0nlt5YbwezoJq0o4-17" value="Номер накладной(FK)" style="text;strokeColor=none;fillColor=none;spacingLeft=4;spacingRight=4;overflow=hidden;rotatable=0;points=[[0,0.5],[1,0.5]];portConstraint=eastwest;fontSize=12;whiteSpace=wrap;html=1;" parent="gCJg0nlt5YbwezoJq0o4-16" vertex="1">
          <mxGeometry y="26" width="170" height="30" as="geometry" />
        </mxCell>
        <mxCell id="gCJg0nlt5YbwezoJq0o4-35" value="" style="line;strokeWidth=1;rotatable=0;dashed=0;labelPosition=right;align=left;verticalAlign=middle;spacingTop=0;spacingLeft=6;points=[];portConstraint=eastwest;" parent="gCJg0nlt5YbwezoJq0o4-16" vertex="1">
          <mxGeometry y="56" width="170" height="10" as="geometry" />
        </mxCell>
        <mxCell id="gCJg0nlt5YbwezoJq0o4-18" value="Дата накладной" style="text;strokeColor=none;fillColor=none;spacingLeft=4;spacingRight=4;overflow=hidden;rotatable=0;points=[[0,0.5],[1,0.5]];portConstraint=eastwest;fontSize=12;whiteSpace=wrap;html=1;" parent="gCJg0nlt5YbwezoJq0o4-16" vertex="1">
          <mxGeometry y="66" width="170" height="34" as="geometry" />
        </mxCell>
        <mxCell id="gCJg0nlt5YbwezoJq0o4-19" value="Код поставщика" style="text;strokeColor=none;fillColor=none;spacingLeft=4;spacingRight=4;overflow=hidden;rotatable=0;points=[[0,0.5],[1,0.5]];portConstraint=eastwest;fontSize=12;whiteSpace=wrap;html=1;" parent="gCJg0nlt5YbwezoJq0o4-16" vertex="1">
          <mxGeometry y="100" width="170" height="40" as="geometry" />
        </mxCell>
        <mxCell id="gCJg0nlt5YbwezoJq0o4-22" value="Состав накладной" style="swimlane;fontStyle=0;childLayout=stackLayout;horizontal=1;startSize=26;horizontalStack=0;resizeParent=1;resizeParentMax=0;resizeLast=0;collapsible=1;marginBottom=0;align=center;fontSize=14;" parent="1" vertex="1">
          <mxGeometry x="700" y="270" width="170" height="126" as="geometry" />
        </mxCell>
        <mxCell id="gCJg0nlt5YbwezoJq0o4-23" value="Номер накладной(PK)" style="text;strokeColor=none;fillColor=none;spacingLeft=4;spacingRight=4;overflow=hidden;rotatable=0;points=[[0,0.5],[1,0.5]];portConstraint=eastwest;fontSize=12;whiteSpace=wrap;html=1;" parent="gCJg0nlt5YbwezoJq0o4-22" vertex="1">
          <mxGeometry y="26" width="170" height="30" as="geometry" />
        </mxCell>
        <mxCell id="gCJg0nlt5YbwezoJq0o4-24" value="Код товара(FK)" style="text;strokeColor=none;fillColor=none;spacingLeft=4;spacingRight=4;overflow=hidden;rotatable=0;points=[[0,0.5],[1,0.5]];portConstraint=eastwest;fontSize=12;whiteSpace=wrap;html=1;" parent="gCJg0nlt5YbwezoJq0o4-22" vertex="1">
          <mxGeometry y="56" width="170" height="30" as="geometry" />
        </mxCell>
        <mxCell id="gCJg0nlt5YbwezoJq0o4-36" value="" style="line;strokeWidth=1;rotatable=0;dashed=0;labelPosition=right;align=left;verticalAlign=middle;spacingTop=0;spacingLeft=6;points=[];portConstraint=eastwest;" parent="gCJg0nlt5YbwezoJq0o4-22" vertex="1">
          <mxGeometry y="86" width="170" height="10" as="geometry" />
        </mxCell>
        <mxCell id="gCJg0nlt5YbwezoJq0o4-25" value="Количество товара" style="text;strokeColor=none;fillColor=none;spacingLeft=4;spacingRight=4;overflow=hidden;rotatable=0;points=[[0,0.5],[1,0.5]];portConstraint=eastwest;fontSize=12;whiteSpace=wrap;html=1;" parent="gCJg0nlt5YbwezoJq0o4-22" vertex="1">
          <mxGeometry y="96" width="170" height="30" as="geometry" />
        </mxCell>
        <mxCell id="gCJg0nlt5YbwezoJq0o4-26" value="" style="endArrow=diamond;html=1;rounded=0;dashed=1;dashPattern=1 2;endFill=0;startArrow=oval;startFill=1;exitX=1;exitY=0.5;exitDx=0;exitDy=0;entryX=0.009;entryY=0.868;entryDx=0;entryDy=0;entryPerimeter=0;" parent="1" source="sVjr9DV75I62hmYHdk1i-11" target="gCJg0nlt5YbwezoJq0o4-38" edge="1">
          <mxGeometry relative="1" as="geometry">
            <mxPoint x="410" y="250" as="sourcePoint" />
            <mxPoint x="560" y="-90" as="targetPoint" />
            <Array as="points" />
          </mxGeometry>
        </mxCell>
        <mxCell id="gCJg0nlt5YbwezoJq0o4-30" value="Состав заявки" style="swimlane;fontStyle=0;childLayout=stackLayout;horizontal=1;startSize=26;horizontalStack=0;resizeParent=1;resizeParentMax=0;resizeLast=0;collapsible=1;marginBottom=0;align=center;fontSize=14;" parent="1" vertex="1">
          <mxGeometry x="220" y="-90" width="210" height="126" as="geometry" />
        </mxCell>
        <mxCell id="gCJg0nlt5YbwezoJq0o4-31" value="Номер заявки(FK)" style="text;strokeColor=none;fillColor=none;spacingLeft=4;spacingRight=4;overflow=hidden;rotatable=0;points=[[0,0.5],[1,0.5]];portConstraint=eastwest;fontSize=12;whiteSpace=wrap;html=1;" parent="gCJg0nlt5YbwezoJq0o4-30" vertex="1">
          <mxGeometry y="26" width="210" height="30" as="geometry" />
        </mxCell>
        <mxCell id="gCJg0nlt5YbwezoJq0o4-32" value="Код товара(PK)" style="text;strokeColor=none;fillColor=none;spacingLeft=4;spacingRight=4;overflow=hidden;rotatable=0;points=[[0,0.5],[1,0.5]];portConstraint=eastwest;fontSize=12;whiteSpace=wrap;html=1;" parent="gCJg0nlt5YbwezoJq0o4-30" vertex="1">
          <mxGeometry y="56" width="210" height="30" as="geometry" />
        </mxCell>
        <mxCell id="gCJg0nlt5YbwezoJq0o4-34" value="" style="line;strokeWidth=1;rotatable=0;dashed=0;labelPosition=right;align=left;verticalAlign=middle;spacingTop=0;spacingLeft=6;points=[];portConstraint=eastwest;" parent="gCJg0nlt5YbwezoJq0o4-30" vertex="1">
          <mxGeometry y="86" width="210" height="10" as="geometry" />
        </mxCell>
        <mxCell id="gCJg0nlt5YbwezoJq0o4-33" value="Количество товара" style="text;strokeColor=none;fillColor=none;spacingLeft=4;spacingRight=4;overflow=hidden;rotatable=0;points=[[0,0.5],[1,0.5]];portConstraint=eastwest;fontSize=12;whiteSpace=wrap;html=1;" parent="gCJg0nlt5YbwezoJq0o4-30" vertex="1">
          <mxGeometry y="96" width="210" height="30" as="geometry" />
        </mxCell>
        <mxCell id="gCJg0nlt5YbwezoJq0o4-37" value="Состав чека" style="swimlane;fontStyle=0;childLayout=stackLayout;horizontal=1;startSize=26;horizontalStack=0;resizeParent=1;resizeParentMax=0;resizeLast=0;collapsible=1;marginBottom=0;align=center;fontSize=14;" parent="1" vertex="1">
          <mxGeometry x="667" y="-150" width="160" height="126" as="geometry" />
        </mxCell>
        <mxCell id="gCJg0nlt5YbwezoJq0o4-38" value="Номер чека(FK)" style="text;strokeColor=none;fillColor=none;spacingLeft=4;spacingRight=4;overflow=hidden;rotatable=0;points=[[0,0.5],[1,0.5]];portConstraint=eastwest;fontSize=12;whiteSpace=wrap;html=1;" parent="gCJg0nlt5YbwezoJq0o4-37" vertex="1">
          <mxGeometry y="26" width="160" height="30" as="geometry" />
        </mxCell>
        <mxCell id="gCJg0nlt5YbwezoJq0o4-39" value="Код товара(FK)" style="text;strokeColor=none;fillColor=none;spacingLeft=4;spacingRight=4;overflow=hidden;rotatable=0;points=[[0,0.5],[1,0.5]];portConstraint=eastwest;fontSize=12;whiteSpace=wrap;html=1;" parent="gCJg0nlt5YbwezoJq0o4-37" vertex="1">
          <mxGeometry y="56" width="160" height="30" as="geometry" />
        </mxCell>
        <mxCell id="gCJg0nlt5YbwezoJq0o4-42" value="" style="line;strokeWidth=1;rotatable=0;dashed=0;labelPosition=right;align=left;verticalAlign=middle;spacingTop=0;spacingLeft=6;points=[];portConstraint=eastwest;" parent="gCJg0nlt5YbwezoJq0o4-37" vertex="1">
          <mxGeometry y="86" width="160" height="10" as="geometry" />
        </mxCell>
        <mxCell id="gCJg0nlt5YbwezoJq0o4-40" value="Количество в чеке" style="text;strokeColor=none;fillColor=none;spacingLeft=4;spacingRight=4;overflow=hidden;rotatable=0;points=[[0,0.5],[1,0.5]];portConstraint=eastwest;fontSize=12;whiteSpace=wrap;html=1;" parent="gCJg0nlt5YbwezoJq0o4-37" vertex="1">
          <mxGeometry y="96" width="160" height="30" as="geometry" />
        </mxCell>
        <mxCell id="gCJg0nlt5YbwezoJq0o4-44" value="" style="endArrow=diamond;html=1;rounded=0;dashed=1;dashPattern=1 2;endFill=0;startArrow=oval;startFill=1;exitX=1;exitY=0.5;exitDx=0;exitDy=0;entryX=0;entryY=0.5;entryDx=0;entryDy=0;" parent="1" source="sVjr9DV75I62hmYHdk1i-7" target="gCJg0nlt5YbwezoJq0o4-39" edge="1">
          <mxGeometry relative="1" as="geometry">
            <mxPoint x="650" y="415" as="sourcePoint" />
            <mxPoint x="650" y="50" as="targetPoint" />
            <Array as="points" />
          </mxGeometry>
        </mxCell>
        <mxCell id="gCJg0nlt5YbwezoJq0o4-45" value="" style="endArrow=diamond;html=1;rounded=0;dashed=1;dashPattern=1 2;endFill=0;startArrow=oval;startFill=1;exitX=1.01;exitY=0.289;exitDx=0;exitDy=0;entryX=0;entryY=0.744;entryDx=0;entryDy=0;entryPerimeter=0;exitPerimeter=0;" parent="1" source="sVjr9DV75I62hmYHdk1i-3" target="gCJg0nlt5YbwezoJq0o4-31" edge="1">
          <mxGeometry relative="1" as="geometry">
            <mxPoint x="120" y="265" as="sourcePoint" />
            <mxPoint x="300" y="-60" as="targetPoint" />
            <Array as="points" />
          </mxGeometry>
        </mxCell>
        <mxCell id="gCJg0nlt5YbwezoJq0o4-46" value="" style="endArrow=diamond;html=1;rounded=0;dashed=1;dashPattern=1 2;endFill=0;startArrow=oval;startFill=1;exitX=0;exitY=0.5;exitDx=0;exitDy=0;entryX=1.022;entryY=0.944;entryDx=0;entryDy=0;entryPerimeter=0;" parent="1" source="sVjr9DV75I62hmYHdk1i-7" target="gCJg0nlt5YbwezoJq0o4-32" edge="1">
          <mxGeometry relative="1" as="geometry">
            <mxPoint x="460" y="405" as="sourcePoint" />
            <mxPoint x="640" y="80" as="targetPoint" />
            <Array as="points" />
          </mxGeometry>
        </mxCell>
        <mxCell id="gCJg0nlt5YbwezoJq0o4-47" value="" style="endArrow=diamond;html=1;rounded=0;dashed=1;dashPattern=1 2;endFill=0;startArrow=diamond;startFill=0;exitX=1.009;exitY=0.213;exitDx=0;exitDy=0;exitPerimeter=0;entryX=0;entryY=0.5;entryDx=0;entryDy=0;" parent="1" source="gCJg0nlt5YbwezoJq0o4-23" target="gCJg0nlt5YbwezoJq0o4-17" edge="1">
          <mxGeometry relative="1" as="geometry">
            <mxPoint x="880" y="140" as="sourcePoint" />
            <mxPoint x="900" y="313.199951171875" as="targetPoint" />
            <Array as="points" />
          </mxGeometry>
        </mxCell>
        <mxCell id="gCJg0nlt5YbwezoJq0o4-48" value="" style="endArrow=diamond;html=1;rounded=0;dashed=1;dashPattern=1 2;endFill=0;startArrow=oval;startFill=1;entryX=0.051;entryY=0.678;entryDx=0;entryDy=0;entryPerimeter=0;exitX=1;exitY=0.5;exitDx=0;exitDy=0;" parent="1" source="sVjr9DV75I62hmYHdk1i-7" target="gCJg0nlt5YbwezoJq0o4-24" edge="1">
          <mxGeometry relative="1" as="geometry">
            <mxPoint x="660" y="220" as="sourcePoint" />
            <mxPoint x="740" y="390" as="targetPoint" />
            <Array as="points" />
          </mxGeometry>
        </mxCell>
        <mxCell id="EtBy-Q-BPnMr8KXIXcHw-1" value="Категории товаров" style="swimlane;fontStyle=0;childLayout=stackLayout;horizontal=1;startSize=30;horizontalStack=0;resizeParent=1;resizeParentMax=0;resizeLast=0;collapsible=1;marginBottom=0;whiteSpace=wrap;html=1;" vertex="1" parent="1">
          <mxGeometry x="490" y="410" width="140" height="90" as="geometry" />
        </mxCell>
        <mxCell id="EtBy-Q-BPnMr8KXIXcHw-2" value="Номер категории(PK)" style="text;strokeColor=none;fillColor=none;align=left;verticalAlign=middle;spacingLeft=4;spacingRight=4;overflow=hidden;points=[[0,0.5],[1,0.5]];portConstraint=eastwest;rotatable=0;whiteSpace=wrap;html=1;" vertex="1" parent="EtBy-Q-BPnMr8KXIXcHw-1">
          <mxGeometry y="30" width="140" height="30" as="geometry" />
        </mxCell>
        <mxCell id="EtBy-Q-BPnMr8KXIXcHw-3" value="Название категории" style="text;strokeColor=none;fillColor=none;align=left;verticalAlign=middle;spacingLeft=4;spacingRight=4;overflow=hidden;points=[[0,0.5],[1,0.5]];portConstraint=eastwest;rotatable=0;whiteSpace=wrap;html=1;" vertex="1" parent="EtBy-Q-BPnMr8KXIXcHw-1">
          <mxGeometry y="60" width="140" height="30" as="geometry" />
        </mxCell>
        <mxCell id="EtBy-Q-BPnMr8KXIXcHw-5" value="" style="endArrow=none;html=1;rounded=0;entryX=0.993;entryY=0.992;entryDx=0;entryDy=0;entryPerimeter=0;" edge="1" parent="EtBy-Q-BPnMr8KXIXcHw-1" target="EtBy-Q-BPnMr8KXIXcHw-2">
          <mxGeometry width="50" height="50" relative="1" as="geometry">
            <mxPoint y="60" as="sourcePoint" />
            <mxPoint x="100" y="-110" as="targetPoint" />
          </mxGeometry>
        </mxCell>
        <mxCell id="EtBy-Q-BPnMr8KXIXcHw-6" value="" style="endArrow=oval;html=1;rounded=0;dashed=1;dashPattern=1 2;exitX=0;exitY=0.5;exitDx=0;exitDy=0;entryX=0;entryY=0.5;entryDx=0;entryDy=0;startArrow=diamond;startFill=0;endFill=1;" edge="1" parent="1" source="sVjr9DV75I62hmYHdk1i-8" target="EtBy-Q-BPnMr8KXIXcHw-2">
          <mxGeometry relative="1" as="geometry">
            <mxPoint x="450" y="350" as="sourcePoint" />
            <mxPoint x="610" y="350" as="targetPoint" />
          </mxGeometry>
        </mxCell>
        <mxCell id="EtBy-Q-BPnMr8KXIXcHw-7" value="" style="resizable=0;html=1;whiteSpace=wrap;align=right;verticalAlign=bottom;" connectable="0" vertex="1" parent="EtBy-Q-BPnMr8KXIXcHw-6">
          <mxGeometry x="1" relative="1" as="geometry" />
        </mxCell>
        <mxCell id="EtBy-Q-BPnMr8KXIXcHw-8" value="Способы оплаты" style="swimlane;fontStyle=0;childLayout=stackLayout;horizontal=1;startSize=26;horizontalStack=0;resizeParent=1;resizeParentMax=0;resizeLast=0;collapsible=1;marginBottom=0;align=center;fontSize=14;" vertex="1" parent="1">
          <mxGeometry x="30" y="410" width="160" height="90" as="geometry" />
        </mxCell>
        <mxCell id="EtBy-Q-BPnMr8KXIXcHw-9" value="Номер способа оплаты(PK)" style="text;strokeColor=none;fillColor=none;spacingLeft=4;spacingRight=4;overflow=hidden;rotatable=0;points=[[0,0.5],[1,0.5]];portConstraint=eastwest;fontSize=12;whiteSpace=wrap;html=1;" vertex="1" parent="EtBy-Q-BPnMr8KXIXcHw-8">
          <mxGeometry y="26" width="160" height="34" as="geometry" />
        </mxCell>
        <mxCell id="EtBy-Q-BPnMr8KXIXcHw-13" value="" style="endArrow=none;html=1;rounded=0;" edge="1" parent="EtBy-Q-BPnMr8KXIXcHw-8">
          <mxGeometry relative="1" as="geometry">
            <mxPoint y="66" as="sourcePoint" />
            <mxPoint x="160" y="66" as="targetPoint" />
          </mxGeometry>
        </mxCell>
        <mxCell id="EtBy-Q-BPnMr8KXIXcHw-10" value="Название способа оплаты" style="text;strokeColor=none;fillColor=none;spacingLeft=4;spacingRight=4;overflow=hidden;rotatable=0;points=[[0,0.5],[1,0.5]];portConstraint=eastwest;fontSize=12;whiteSpace=wrap;html=1;" vertex="1" parent="EtBy-Q-BPnMr8KXIXcHw-8">
          <mxGeometry y="60" width="160" height="30" as="geometry" />
        </mxCell>
        <mxCell id="EtBy-Q-BPnMr8KXIXcHw-14" value="" style="endArrow=oval;html=1;rounded=0;dashed=1;dashPattern=1 2;exitX=0;exitY=0.5;exitDx=0;exitDy=0;entryX=1;entryY=0.5;entryDx=0;entryDy=0;startArrow=diamond;startFill=0;endFill=1;" edge="1" parent="1" source="gCJg0nlt5YbwezoJq0o4-12" target="EtBy-Q-BPnMr8KXIXcHw-9">
          <mxGeometry relative="1" as="geometry">
            <mxPoint x="140" y="420" as="sourcePoint" />
            <mxPoint x="300" y="420" as="targetPoint" />
          </mxGeometry>
        </mxCell>
        <mxCell id="EtBy-Q-BPnMr8KXIXcHw-15" value="" style="resizable=0;html=1;whiteSpace=wrap;align=right;verticalAlign=bottom;" connectable="0" vertex="1" parent="EtBy-Q-BPnMr8KXIXcHw-14">
          <mxGeometry x="1" relative="1" as="geometry" />
        </mxCell>
        <mxCell id="EtBy-Q-BPnMr8KXIXcHw-16" value="&lt;h3 style=&quot;--tw-border-spacing-x: 0; --tw-border-spacing-y: 0; --tw-translate-x: 0; --tw-translate-y: 0; --tw-rotate: 0; --tw-skew-x: 0; --tw-skew-y: 0; --tw-scale-x: 1; --tw-scale-y: 1; --tw-pan-x: ; --tw-pan-y: ; --tw-pinch-zoom: ; --tw-scroll-snap-strictness: proximity; --tw-gradient-from-position: ; --tw-gradient-via-position: ; --tw-gradient-to-position: ; --tw-ordinal: ; --tw-slashed-zero: ; --tw-numeric-figure: ; --tw-numeric-spacing: ; --tw-numeric-fraction: ; --tw-ring-inset: ; --tw-ring-offset-width: 0px; --tw-ring-offset-color: light-dark(#fff, #000000); --tw-ring-color: rgb(59 130 246 / .5); --tw-ring-offset-shadow: 0 0 #0000; --tw-ring-shadow: 0 0 #0000; --tw-shadow: 0 0 #0000; --tw-shadow-colored: 0 0 #0000; --tw-blur: ; --tw-brightness: ; --tw-contrast: ; --tw-grayscale: ; --tw-hue-rotate: ; --tw-invert: ; --tw-saturate: ; --tw-sepia: ; --tw-drop-shadow: ; --tw-backdrop-blur: ; --tw-backdrop-brightness: ; --tw-backdrop-contrast: ; --tw-backdrop-grayscale: ; --tw-backdrop-hue-rotate: ; --tw-backdrop-invert: ; --tw-backdrop-opacity: ; --tw-backdrop-saturate: ; --tw-backdrop-sepia: ; --tw-contain-size: ; --tw-contain-layout: ; --tw-contain-paint: ; --tw-contain-style: ; box-sizing: border-box; border-width: 0px; border-style: solid; border-color: rgb(227, 227, 227); font-size: 16px; margin: 12px 0px; unicode-bidi: plaintext; color: rgb(44, 44, 54); line-height: 1.75; letter-spacing: 0em; font-family: system-ui, ui-sans-serif, -apple-system, BlinkMacSystemFont, sans-serif, Inter, NotoSansHans; text-align: start; white-space-collapse: preserve-breaks; background-color: rgb(255, 255, 255);&quot; data-spm-anchor-id=&quot;a2ty_o01.29997173.0.i1.737bc921pXsMA4&quot;&gt;&lt;span style=&quot;--tw-border-spacing-x: 0; --tw-border-spacing-y: 0; --tw-translate-x: 0; --tw-translate-y: 0; --tw-rotate: 0; --tw-skew-x: 0; --tw-skew-y: 0; --tw-scale-x: 1; --tw-scale-y: 1; --tw-pan-x: ; --tw-pan-y: ; --tw-pinch-zoom: ; --tw-scroll-snap-strictness: proximity; --tw-gradient-from-position: ; --tw-gradient-via-position: ; --tw-gradient-to-position: ; --tw-ordinal: ; --tw-slashed-zero: ; --tw-numeric-figure: ; --tw-numeric-spacing: ; --tw-numeric-fraction: ; --tw-ring-inset: ; --tw-ring-offset-width: 0px; --tw-ring-offset-color: light-dark(#fff, #000000); --tw-ring-color: rgb(59 130 246 / .5); --tw-ring-offset-shadow: 0 0 #0000; --tw-ring-shadow: 0 0 #0000; --tw-shadow: 0 0 #0000; --tw-shadow-colored: 0 0 #0000; --tw-blur: ; --tw-brightness: ; --tw-contrast: ; --tw-grayscale: ; --tw-hue-rotate: ; --tw-invert: ; --tw-saturate: ; --tw-sepia: ; --tw-drop-shadow: ; --tw-backdrop-blur: ; --tw-backdrop-brightness: ; --tw-backdrop-contrast: ; --tw-backdrop-grayscale: ; --tw-backdrop-hue-rotate: ; --tw-backdrop-invert: ; --tw-backdrop-opacity: ; --tw-backdrop-saturate: ; --tw-backdrop-sepia: ; --tw-contain-size: ; --tw-contain-layout: ; --tw-contain-paint: ; --tw-contain-style: ; box-sizing: border-box; border-width: 0px; border-style: solid; border-color: rgb(227, 227, 227); color: inherit; margin: 12px 0px; line-height: 1.75; letter-spacing: 0.02em; font-weight: normal;&quot;&gt;Requests&lt;/span&gt;&lt;/h3&gt;" style="swimlane;fontStyle=0;childLayout=stackLayout;horizontal=1;startSize=30;horizontalStack=0;resizeParent=1;resizeParentMax=0;resizeLast=0;collapsible=1;marginBottom=0;whiteSpace=wrap;html=1;" vertex="1" parent="1">
          <mxGeometry x="640" y="1205" width="140" height="90" as="geometry">
            <mxRectangle x="40" y="40" width="130" height="30" as="alternateBounds" />
          </mxGeometry>
        </mxCell>
        <mxCell id="EtBy-Q-BPnMr8KXIXcHw-17" value="&lt;span style=&quot;color: rgb(29, 29, 32); font-family: system-ui, ui-sans-serif, -apple-system, BlinkMacSystemFont, sans-serif, Inter, NotoSansHans; font-size: 14px; letter-spacing: -0.28px; text-wrap-mode: nowrap; background-color: rgb(255, 255, 255);&quot;&gt;Request ID (PK)&lt;/span&gt;" style="text;strokeColor=none;fillColor=none;align=left;verticalAlign=middle;spacingLeft=4;spacingRight=4;overflow=hidden;points=[[0,0.5],[1,0.5]];portConstraint=eastwest;rotatable=0;whiteSpace=wrap;html=1;" vertex="1" parent="EtBy-Q-BPnMr8KXIXcHw-16">
          <mxGeometry y="30" width="140" height="30" as="geometry" />
        </mxCell>
        <mxCell id="EtBy-Q-BPnMr8KXIXcHw-18" value="&lt;span style=&quot;color: rgb(29, 29, 32); font-family: system-ui, ui-sans-serif, -apple-system, BlinkMacSystemFont, sans-serif, Inter, NotoSansHans; font-size: 14px; letter-spacing: -0.28px; text-wrap-mode: nowrap; background-color: rgb(255, 255, 255);&quot;&gt;Request Date&lt;/span&gt;" style="text;strokeColor=none;fillColor=none;align=left;verticalAlign=middle;spacingLeft=4;spacingRight=4;overflow=hidden;points=[[0,0.5],[1,0.5]];portConstraint=eastwest;rotatable=0;whiteSpace=wrap;html=1;" vertex="1" parent="EtBy-Q-BPnMr8KXIXcHw-16">
          <mxGeometry y="60" width="140" height="30" as="geometry" />
        </mxCell>
        <mxCell id="EtBy-Q-BPnMr8KXIXcHw-19" value="" style="endArrow=none;html=1;rounded=0;exitX=-0.014;exitY=0.044;exitDx=0;exitDy=0;exitPerimeter=0;" edge="1" parent="EtBy-Q-BPnMr8KXIXcHw-16" source="EtBy-Q-BPnMr8KXIXcHw-18">
          <mxGeometry width="50" height="50" relative="1" as="geometry">
            <mxPoint x="340" y="90" as="sourcePoint" />
            <mxPoint x="143" y="60" as="targetPoint" />
            <Array as="points">
              <mxPoint x="70" y="60" />
            </Array>
          </mxGeometry>
        </mxCell>
        <mxCell id="EtBy-Q-BPnMr8KXIXcHw-20" value="Product Catalog" style="swimlane;fontStyle=0;childLayout=stackLayout;horizontal=1;startSize=30;horizontalStack=0;resizeParent=1;resizeParentMax=0;resizeLast=0;collapsible=1;marginBottom=0;whiteSpace=wrap;html=1;" vertex="1" parent="1">
          <mxGeometry x="1116" y="1270" width="140" height="160" as="geometry">
            <mxRectangle x="480" width="70" height="30" as="alternateBounds" />
          </mxGeometry>
        </mxCell>
        <mxCell id="EtBy-Q-BPnMr8KXIXcHw-21" value="&lt;div&gt;&lt;span style=&quot;white-space: pre; white-space: normal;&quot;&gt;&#x9;&lt;/span&gt;&lt;/div&gt;&lt;div&gt;Product Code (PK)&lt;/div&gt;" style="text;strokeColor=none;fillColor=none;align=left;verticalAlign=middle;spacingLeft=4;spacingRight=4;overflow=hidden;points=[[0,0.5],[1,0.5]];portConstraint=eastwest;rotatable=0;whiteSpace=wrap;html=1;" vertex="1" parent="EtBy-Q-BPnMr8KXIXcHw-20">
          <mxGeometry y="30" width="140" height="30" as="geometry" />
        </mxCell>
        <mxCell id="EtBy-Q-BPnMr8KXIXcHw-22" value="&lt;div&gt;&lt;span style=&quot;white-space: pre; white-space: normal;&quot;&gt;&#x9;&lt;/span&gt;&lt;/div&gt;&lt;div&gt;Product Name&amp;nbsp;&lt;/div&gt;" style="text;strokeColor=none;fillColor=none;align=left;verticalAlign=middle;spacingLeft=4;spacingRight=4;overflow=hidden;points=[[0,0.5],[1,0.5]];portConstraint=eastwest;rotatable=0;whiteSpace=wrap;html=1;" vertex="1" parent="EtBy-Q-BPnMr8KXIXcHw-20">
          <mxGeometry y="60" width="140" height="30" as="geometry" />
        </mxCell>
        <mxCell id="EtBy-Q-BPnMr8KXIXcHw-23" value="&lt;div&gt;&lt;span style=&quot;white-space: pre; white-space: normal;&quot;&gt;&#x9;&lt;/span&gt;&lt;/div&gt;&lt;div&gt;Category ID (FK)&lt;/div&gt;" style="text;strokeColor=none;fillColor=none;align=left;verticalAlign=middle;spacingLeft=4;spacingRight=4;overflow=hidden;points=[[0,0.5],[1,0.5]];portConstraint=eastwest;rotatable=0;whiteSpace=wrap;html=1;" vertex="1" parent="EtBy-Q-BPnMr8KXIXcHw-20">
          <mxGeometry y="90" width="140" height="30" as="geometry" />
        </mxCell>
        <mxCell id="EtBy-Q-BPnMr8KXIXcHw-24" value="&lt;div&gt;&lt;span style=&quot;white-space: pre; white-space: normal;&quot;&gt;&#x9;&lt;/span&gt;&lt;/div&gt;&lt;div&gt;Product Price&lt;/div&gt;" style="text;strokeColor=none;fillColor=none;align=left;verticalAlign=middle;spacingLeft=4;spacingRight=4;overflow=hidden;points=[[0,0.5],[1,0.5]];portConstraint=eastwest;rotatable=0;whiteSpace=wrap;html=1;" vertex="1" parent="EtBy-Q-BPnMr8KXIXcHw-20">
          <mxGeometry y="120" width="140" height="40" as="geometry" />
        </mxCell>
        <mxCell id="EtBy-Q-BPnMr8KXIXcHw-25" value="" style="endArrow=none;html=1;rounded=0;entryX=0.99;entryY=-0.067;entryDx=0;entryDy=0;entryPerimeter=0;exitX=0;exitY=-0.022;exitDx=0;exitDy=0;exitPerimeter=0;" edge="1" parent="EtBy-Q-BPnMr8KXIXcHw-20" source="EtBy-Q-BPnMr8KXIXcHw-22" target="EtBy-Q-BPnMr8KXIXcHw-22">
          <mxGeometry width="50" height="50" relative="1" as="geometry">
            <mxPoint x="-100" y="130" as="sourcePoint" />
            <mxPoint x="-50" y="80" as="targetPoint" />
          </mxGeometry>
        </mxCell>
        <mxCell id="EtBy-Q-BPnMr8KXIXcHw-26" value="&lt;h3 style=&quot;--tw-border-spacing-x: 0; --tw-border-spacing-y: 0; --tw-translate-x: 0; --tw-translate-y: 0; --tw-rotate: 0; --tw-skew-x: 0; --tw-skew-y: 0; --tw-scale-x: 1; --tw-scale-y: 1; --tw-pan-x: ; --tw-pan-y: ; --tw-pinch-zoom: ; --tw-scroll-snap-strictness: proximity; --tw-gradient-from-position: ; --tw-gradient-via-position: ; --tw-gradient-to-position: ; --tw-ordinal: ; --tw-slashed-zero: ; --tw-numeric-figure: ; --tw-numeric-spacing: ; --tw-numeric-fraction: ; --tw-ring-inset: ; --tw-ring-offset-width: 0px; --tw-ring-offset-color: #fff; --tw-ring-color: rgb(59 130 246 / .5); --tw-ring-offset-shadow: 0 0 #0000; --tw-ring-shadow: 0 0 #0000; --tw-shadow: 0 0 #0000; --tw-shadow-colored: 0 0 #0000; --tw-blur: ; --tw-brightness: ; --tw-contrast: ; --tw-grayscale: ; --tw-hue-rotate: ; --tw-invert: ; --tw-saturate: ; --tw-sepia: ; --tw-drop-shadow: ; --tw-backdrop-blur: ; --tw-backdrop-brightness: ; --tw-backdrop-contrast: ; --tw-backdrop-grayscale: ; --tw-backdrop-hue-rotate: ; --tw-backdrop-invert: ; --tw-backdrop-opacity: ; --tw-backdrop-saturate: ; --tw-backdrop-sepia: ; --tw-contain-size: ; --tw-contain-layout: ; --tw-contain-paint: ; --tw-contain-style: ; box-sizing: border-box; border-width: 0px; border-style: solid; border-color: rgb(227, 227, 227); font-size: 16px; margin: 12px 0px; unicode-bidi: plaintext; color: rgb(44, 44, 54); line-height: 1.75; letter-spacing: 0em; font-family: system-ui, ui-sans-serif, -apple-system, BlinkMacSystemFont, sans-serif, Inter, NotoSansHans; text-align: start; white-space-collapse: preserve-breaks; background-color: rgb(255, 255, 255);&quot; data-spm-anchor-id=&quot;a2ty_o01.29997173.0.i9.737bc921pXsMA4&quot;&gt;&lt;span style=&quot;--tw-border-spacing-x: 0; --tw-border-spacing-y: 0; --tw-translate-x: 0; --tw-translate-y: 0; --tw-rotate: 0; --tw-skew-x: 0; --tw-skew-y: 0; --tw-scale-x: 1; --tw-scale-y: 1; --tw-pan-x: ; --tw-pan-y: ; --tw-pinch-zoom: ; --tw-scroll-snap-strictness: proximity; --tw-gradient-from-position: ; --tw-gradient-via-position: ; --tw-gradient-to-position: ; --tw-ordinal: ; --tw-slashed-zero: ; --tw-numeric-figure: ; --tw-numeric-spacing: ; --tw-numeric-fraction: ; --tw-ring-inset: ; --tw-ring-offset-width: 0px; --tw-ring-offset-color: #fff; --tw-ring-color: rgb(59 130 246 / .5); --tw-ring-offset-shadow: 0 0 #0000; --tw-ring-shadow: 0 0 #0000; --tw-shadow: 0 0 #0000; --tw-shadow-colored: 0 0 #0000; --tw-blur: ; --tw-brightness: ; --tw-contrast: ; --tw-grayscale: ; --tw-hue-rotate: ; --tw-invert: ; --tw-saturate: ; --tw-sepia: ; --tw-drop-shadow: ; --tw-backdrop-blur: ; --tw-backdrop-brightness: ; --tw-backdrop-contrast: ; --tw-backdrop-grayscale: ; --tw-backdrop-hue-rotate: ; --tw-backdrop-invert: ; --tw-backdrop-opacity: ; --tw-backdrop-saturate: ; --tw-backdrop-sepia: ; --tw-contain-size: ; --tw-contain-layout: ; --tw-contain-paint: ; --tw-contain-style: ; box-sizing: border-box; border-width: 0px; border-style: solid; border-color: rgb(227, 227, 227); font-weight: 500; color: inherit; margin: 12px 0px; line-height: 1.75; letter-spacing: 0.02em;&quot; data-spm-anchor-id=&quot;a2ty_o01.29997173.0.i10.737bc921pXsMA4&quot;&gt;Checks&lt;/span&gt;&lt;/h3&gt;" style="swimlane;fontStyle=0;childLayout=stackLayout;horizontal=1;startSize=30;horizontalStack=0;resizeParent=1;resizeParentMax=0;resizeLast=0;collapsible=1;marginBottom=0;whiteSpace=wrap;html=1;" vertex="1" parent="1">
          <mxGeometry x="856" y="1330" width="140" height="210" as="geometry">
            <mxRectangle x="240" y="190" width="70" height="30" as="alternateBounds" />
          </mxGeometry>
        </mxCell>
        <mxCell id="EtBy-Q-BPnMr8KXIXcHw-27" value="&lt;span style=&quot;color: rgb(29, 29, 32); font-family: system-ui, ui-sans-serif, -apple-system, BlinkMacSystemFont, sans-serif, Inter, NotoSansHans; font-size: 14px; letter-spacing: -0.28px; text-wrap-mode: nowrap; background-color: rgb(255, 255, 255);&quot;&gt;Check ID (PK)&lt;/span&gt;" style="text;strokeColor=none;fillColor=none;align=left;verticalAlign=middle;spacingLeft=4;spacingRight=4;overflow=hidden;points=[[0,0.5],[1,0.5]];portConstraint=eastwest;rotatable=0;whiteSpace=wrap;html=1;" vertex="1" parent="EtBy-Q-BPnMr8KXIXcHw-26">
          <mxGeometry y="30" width="140" height="30" as="geometry" />
        </mxCell>
        <mxCell id="EtBy-Q-BPnMr8KXIXcHw-28" value="" style="endArrow=none;html=1;rounded=0;exitX=0.014;exitY=0.067;exitDx=0;exitDy=0;exitPerimeter=0;entryX=1.014;entryY=0;entryDx=0;entryDy=0;entryPerimeter=0;" edge="1" parent="EtBy-Q-BPnMr8KXIXcHw-26">
          <mxGeometry width="50" height="50" relative="1" as="geometry">
            <mxPoint x="3.6415315207705135e-14" y="59.999999999999766" as="sourcePoint" />
            <mxPoint x="140.00000000000003" y="57.99" as="targetPoint" />
            <Array as="points">
              <mxPoint x="68.04" y="57.99" />
            </Array>
          </mxGeometry>
        </mxCell>
        <mxCell id="EtBy-Q-BPnMr8KXIXcHw-29" value="&lt;div&gt;&lt;span style=&quot;white-space: pre; white-space: normal;&quot;&gt;&#x9;&lt;/span&gt;&lt;/div&gt;&lt;div&gt;Payment Method ID (FK)&lt;/div&gt;" style="text;strokeColor=none;fillColor=none;align=left;verticalAlign=middle;spacingLeft=4;spacingRight=4;overflow=hidden;points=[[0,0.5],[1,0.5]];portConstraint=eastwest;rotatable=0;whiteSpace=wrap;html=1;" vertex="1" parent="EtBy-Q-BPnMr8KXIXcHw-26">
          <mxGeometry y="60" width="140" height="30" as="geometry" />
        </mxCell>
        <mxCell id="EtBy-Q-BPnMr8KXIXcHw-30" value="Sale Date" style="text;strokeColor=none;fillColor=none;align=left;verticalAlign=middle;spacingLeft=4;spacingRight=4;overflow=hidden;points=[[0,0.5],[1,0.5]];portConstraint=eastwest;rotatable=0;whiteSpace=wrap;html=1;" vertex="1" parent="EtBy-Q-BPnMr8KXIXcHw-26">
          <mxGeometry y="90" width="140" height="30" as="geometry" />
        </mxCell>
        <mxCell id="EtBy-Q-BPnMr8KXIXcHw-31" value="&lt;div&gt;&lt;span style=&quot;white-space: pre; white-space: normal;&quot;&gt;&#x9;&lt;/span&gt;&lt;/div&gt;&lt;div&gt;Cash Register ID&lt;/div&gt;" style="text;strokeColor=none;fillColor=none;align=left;verticalAlign=middle;spacingLeft=4;spacingRight=4;overflow=hidden;points=[[0,0.5],[1,0.5]];portConstraint=eastwest;rotatable=0;whiteSpace=wrap;html=1;" vertex="1" parent="EtBy-Q-BPnMr8KXIXcHw-26">
          <mxGeometry y="120" width="140" height="30" as="geometry" />
        </mxCell>
        <mxCell id="EtBy-Q-BPnMr8KXIXcHw-32" value="&lt;div&gt;&lt;span style=&quot;white-space: pre; white-space: normal;&quot;&gt;&#x9;&lt;/span&gt;&lt;/div&gt;&lt;div&gt;Total Amount&lt;/div&gt;" style="text;strokeColor=none;fillColor=none;align=left;verticalAlign=middle;spacingLeft=4;spacingRight=4;overflow=hidden;points=[[0,0.5],[1,0.5]];portConstraint=eastwest;rotatable=0;whiteSpace=wrap;html=1;" vertex="1" parent="EtBy-Q-BPnMr8KXIXcHw-26">
          <mxGeometry y="150" width="140" height="30" as="geometry" />
        </mxCell>
        <mxCell id="EtBy-Q-BPnMr8KXIXcHw-33" value="&lt;div&gt;&lt;span style=&quot;white-space: pre; white-space: normal;&quot;&gt;&#x9;&lt;/span&gt;&lt;/div&gt;&lt;div&gt;Employee ID&lt;/div&gt;" style="text;strokeColor=none;fillColor=none;align=left;verticalAlign=middle;spacingLeft=4;spacingRight=4;overflow=hidden;points=[[0,0.5],[1,0.5]];portConstraint=eastwest;rotatable=0;whiteSpace=wrap;html=1;" vertex="1" parent="EtBy-Q-BPnMr8KXIXcHw-26">
          <mxGeometry y="180" width="140" height="30" as="geometry" />
        </mxCell>
        <mxCell id="EtBy-Q-BPnMr8KXIXcHw-34" value="Invoices " style="swimlane;fontStyle=0;childLayout=stackLayout;horizontal=1;startSize=26;horizontalStack=0;resizeParent=1;resizeParentMax=0;resizeLast=0;collapsible=1;marginBottom=0;align=center;fontSize=14;" vertex="1" parent="1">
          <mxGeometry x="1531" y="1176" width="170" height="140" as="geometry" />
        </mxCell>
        <mxCell id="EtBy-Q-BPnMr8KXIXcHw-35" value="&lt;div&gt;&lt;span style=&quot;white-space: pre; white-space: normal;&quot;&gt;&#x9;&lt;/span&gt;&lt;/div&gt;&lt;div&gt;Invoice ID (FK)&lt;/div&gt;" style="text;strokeColor=none;fillColor=none;spacingLeft=4;spacingRight=4;overflow=hidden;rotatable=0;points=[[0,0.5],[1,0.5]];portConstraint=eastwest;fontSize=12;whiteSpace=wrap;html=1;" vertex="1" parent="EtBy-Q-BPnMr8KXIXcHw-34">
          <mxGeometry y="26" width="170" height="30" as="geometry" />
        </mxCell>
        <mxCell id="EtBy-Q-BPnMr8KXIXcHw-36" value="" style="line;strokeWidth=1;rotatable=0;dashed=0;labelPosition=right;align=left;verticalAlign=middle;spacingTop=0;spacingLeft=6;points=[];portConstraint=eastwest;" vertex="1" parent="EtBy-Q-BPnMr8KXIXcHw-34">
          <mxGeometry y="56" width="170" height="10" as="geometry" />
        </mxCell>
        <mxCell id="EtBy-Q-BPnMr8KXIXcHw-37" value="&lt;div&gt;&lt;span style=&quot;white-space: pre; white-space: normal;&quot;&gt;&#x9;&lt;/span&gt;&lt;/div&gt;&lt;div&gt;Invoice Date&lt;/div&gt;" style="text;strokeColor=none;fillColor=none;spacingLeft=4;spacingRight=4;overflow=hidden;rotatable=0;points=[[0,0.5],[1,0.5]];portConstraint=eastwest;fontSize=12;whiteSpace=wrap;html=1;" vertex="1" parent="EtBy-Q-BPnMr8KXIXcHw-34">
          <mxGeometry y="66" width="170" height="34" as="geometry" />
        </mxCell>
        <mxCell id="EtBy-Q-BPnMr8KXIXcHw-38" value="&lt;div&gt;&lt;span style=&quot;white-space: pre; white-space: normal;&quot;&gt;&#x9;&lt;/span&gt;&lt;/div&gt;&lt;div&gt;Supplier Code&lt;/div&gt;" style="text;strokeColor=none;fillColor=none;spacingLeft=4;spacingRight=4;overflow=hidden;rotatable=0;points=[[0,0.5],[1,0.5]];portConstraint=eastwest;fontSize=12;whiteSpace=wrap;html=1;" vertex="1" parent="EtBy-Q-BPnMr8KXIXcHw-34">
          <mxGeometry y="100" width="170" height="40" as="geometry" />
        </mxCell>
        <mxCell id="EtBy-Q-BPnMr8KXIXcHw-39" value="Invoice Items" style="swimlane;fontStyle=0;childLayout=stackLayout;horizontal=1;startSize=26;horizontalStack=0;resizeParent=1;resizeParentMax=0;resizeLast=0;collapsible=1;marginBottom=0;align=center;fontSize=14;" vertex="1" parent="1">
          <mxGeometry x="1316" y="1410" width="170" height="126" as="geometry" />
        </mxCell>
        <mxCell id="EtBy-Q-BPnMr8KXIXcHw-40" value="&lt;div&gt;&lt;span style=&quot;white-space: pre; white-space: normal;&quot;&gt;&#x9;&lt;/span&gt;&lt;/div&gt;&lt;div&gt;Invoice ID (PK)&lt;/div&gt;" style="text;strokeColor=none;fillColor=none;spacingLeft=4;spacingRight=4;overflow=hidden;rotatable=0;points=[[0,0.5],[1,0.5]];portConstraint=eastwest;fontSize=12;whiteSpace=wrap;html=1;" vertex="1" parent="EtBy-Q-BPnMr8KXIXcHw-39">
          <mxGeometry y="26" width="170" height="30" as="geometry" />
        </mxCell>
        <mxCell id="EtBy-Q-BPnMr8KXIXcHw-41" value="&lt;div&gt;&lt;span style=&quot;white-space: pre; white-space: normal;&quot;&gt;&#x9;&lt;/span&gt;&lt;/div&gt;&lt;div&gt;Product Code (FK)&lt;/div&gt;" style="text;strokeColor=none;fillColor=none;spacingLeft=4;spacingRight=4;overflow=hidden;rotatable=0;points=[[0,0.5],[1,0.5]];portConstraint=eastwest;fontSize=12;whiteSpace=wrap;html=1;" vertex="1" parent="EtBy-Q-BPnMr8KXIXcHw-39">
          <mxGeometry y="56" width="170" height="30" as="geometry" />
        </mxCell>
        <mxCell id="EtBy-Q-BPnMr8KXIXcHw-42" value="" style="line;strokeWidth=1;rotatable=0;dashed=0;labelPosition=right;align=left;verticalAlign=middle;spacingTop=0;spacingLeft=6;points=[];portConstraint=eastwest;" vertex="1" parent="EtBy-Q-BPnMr8KXIXcHw-39">
          <mxGeometry y="86" width="170" height="10" as="geometry" />
        </mxCell>
        <mxCell id="EtBy-Q-BPnMr8KXIXcHw-43" value="&lt;div&gt;&lt;span style=&quot;white-space: pre; white-space: normal;&quot;&gt;&#x9;&lt;/span&gt;&lt;/div&gt;&lt;div&gt;Quantity&lt;/div&gt;" style="text;strokeColor=none;fillColor=none;spacingLeft=4;spacingRight=4;overflow=hidden;rotatable=0;points=[[0,0.5],[1,0.5]];portConstraint=eastwest;fontSize=12;whiteSpace=wrap;html=1;" vertex="1" parent="EtBy-Q-BPnMr8KXIXcHw-39">
          <mxGeometry y="96" width="170" height="30" as="geometry" />
        </mxCell>
        <mxCell id="EtBy-Q-BPnMr8KXIXcHw-44" value="" style="endArrow=diamond;html=1;rounded=0;dashed=1;dashPattern=1 2;endFill=0;startArrow=oval;startFill=1;exitX=1;exitY=0.5;exitDx=0;exitDy=0;entryX=0.009;entryY=0.868;entryDx=0;entryDy=0;entryPerimeter=0;" edge="1" parent="1" source="EtBy-Q-BPnMr8KXIXcHw-27" target="EtBy-Q-BPnMr8KXIXcHw-51">
          <mxGeometry relative="1" as="geometry">
            <mxPoint x="1026" y="1390" as="sourcePoint" />
            <mxPoint x="1176" y="1050" as="targetPoint" />
            <Array as="points" />
          </mxGeometry>
        </mxCell>
        <mxCell id="EtBy-Q-BPnMr8KXIXcHw-45" value="Request Items" style="swimlane;fontStyle=0;childLayout=stackLayout;horizontal=1;startSize=26;horizontalStack=0;resizeParent=1;resizeParentMax=0;resizeLast=0;collapsible=1;marginBottom=0;align=center;fontSize=14;" vertex="1" parent="1">
          <mxGeometry x="836" y="1050" width="210" height="126" as="geometry" />
        </mxCell>
        <mxCell id="EtBy-Q-BPnMr8KXIXcHw-46" value="&lt;span style=&quot;color: rgb(29, 29, 32); font-family: system-ui, ui-sans-serif, -apple-system, BlinkMacSystemFont, sans-serif, Inter, NotoSansHans; font-size: 14px; letter-spacing: -0.28px; text-wrap-mode: nowrap; background-color: rgb(255, 255, 255);&quot;&gt;Request ID (FK)&lt;/span&gt;" style="text;strokeColor=none;fillColor=none;spacingLeft=4;spacingRight=4;overflow=hidden;rotatable=0;points=[[0,0.5],[1,0.5]];portConstraint=eastwest;fontSize=12;whiteSpace=wrap;html=1;" vertex="1" parent="EtBy-Q-BPnMr8KXIXcHw-45">
          <mxGeometry y="26" width="210" height="30" as="geometry" />
        </mxCell>
        <mxCell id="EtBy-Q-BPnMr8KXIXcHw-47" value="&lt;span style=&quot;color: rgb(29, 29, 32); font-family: system-ui, ui-sans-serif, -apple-system, BlinkMacSystemFont, sans-serif, Inter, NotoSansHans; font-size: 14px; letter-spacing: -0.28px; text-wrap-mode: nowrap; background-color: rgb(255, 255, 255);&quot;&gt;Product Code (PK)&lt;/span&gt;" style="text;strokeColor=none;fillColor=none;spacingLeft=4;spacingRight=4;overflow=hidden;rotatable=0;points=[[0,0.5],[1,0.5]];portConstraint=eastwest;fontSize=12;whiteSpace=wrap;html=1;" vertex="1" parent="EtBy-Q-BPnMr8KXIXcHw-45">
          <mxGeometry y="56" width="210" height="30" as="geometry" />
        </mxCell>
        <mxCell id="EtBy-Q-BPnMr8KXIXcHw-48" value="" style="line;strokeWidth=1;rotatable=0;dashed=0;labelPosition=right;align=left;verticalAlign=middle;spacingTop=0;spacingLeft=6;points=[];portConstraint=eastwest;" vertex="1" parent="EtBy-Q-BPnMr8KXIXcHw-45">
          <mxGeometry y="86" width="210" height="10" as="geometry" />
        </mxCell>
        <mxCell id="EtBy-Q-BPnMr8KXIXcHw-49" value="&lt;span style=&quot;color: rgb(29, 29, 32); font-family: system-ui, ui-sans-serif, -apple-system, BlinkMacSystemFont, sans-serif, Inter, NotoSansHans; font-size: 14px; letter-spacing: -0.28px; text-wrap-mode: nowrap; background-color: rgb(255, 255, 255);&quot;&gt;Quantity&lt;/span&gt;" style="text;strokeColor=none;fillColor=none;spacingLeft=4;spacingRight=4;overflow=hidden;rotatable=0;points=[[0,0.5],[1,0.5]];portConstraint=eastwest;fontSize=12;whiteSpace=wrap;html=1;" vertex="1" parent="EtBy-Q-BPnMr8KXIXcHw-45">
          <mxGeometry y="96" width="210" height="30" as="geometry" />
        </mxCell>
        <mxCell id="EtBy-Q-BPnMr8KXIXcHw-50" value="Check Items" style="swimlane;fontStyle=0;childLayout=stackLayout;horizontal=1;startSize=26;horizontalStack=0;resizeParent=1;resizeParentMax=0;resizeLast=0;collapsible=1;marginBottom=0;align=center;fontSize=14;" vertex="1" parent="1">
          <mxGeometry x="1283" y="990" width="160" height="126" as="geometry" />
        </mxCell>
        <mxCell id="EtBy-Q-BPnMr8KXIXcHw-51" value="&lt;div&gt;&lt;span style=&quot;white-space: pre; white-space: normal;&quot;&gt;&#x9;&lt;/span&gt;&lt;/div&gt;&lt;div&gt;Check ID (FK)&lt;/div&gt;" style="text;strokeColor=none;fillColor=none;spacingLeft=4;spacingRight=4;overflow=hidden;rotatable=0;points=[[0,0.5],[1,0.5]];portConstraint=eastwest;fontSize=12;whiteSpace=wrap;html=1;" vertex="1" parent="EtBy-Q-BPnMr8KXIXcHw-50">
          <mxGeometry y="26" width="160" height="30" as="geometry" />
        </mxCell>
        <mxCell id="EtBy-Q-BPnMr8KXIXcHw-52" value="&lt;div&gt;&lt;span style=&quot;white-space: pre; white-space: normal;&quot;&gt;&#x9;&lt;/span&gt;&lt;/div&gt;&lt;div&gt;Product Code (FK)&lt;/div&gt;" style="text;strokeColor=none;fillColor=none;spacingLeft=4;spacingRight=4;overflow=hidden;rotatable=0;points=[[0,0.5],[1,0.5]];portConstraint=eastwest;fontSize=12;whiteSpace=wrap;html=1;" vertex="1" parent="EtBy-Q-BPnMr8KXIXcHw-50">
          <mxGeometry y="56" width="160" height="30" as="geometry" />
        </mxCell>
        <mxCell id="EtBy-Q-BPnMr8KXIXcHw-53" value="" style="line;strokeWidth=1;rotatable=0;dashed=0;labelPosition=right;align=left;verticalAlign=middle;spacingTop=0;spacingLeft=6;points=[];portConstraint=eastwest;" vertex="1" parent="EtBy-Q-BPnMr8KXIXcHw-50">
          <mxGeometry y="86" width="160" height="10" as="geometry" />
        </mxCell>
        <mxCell id="EtBy-Q-BPnMr8KXIXcHw-54" value="&lt;div&gt;&lt;span style=&quot;white-space: pre; white-space: normal;&quot;&gt;&#x9;&lt;/span&gt;&lt;/div&gt;&lt;div&gt;Quantity in Check&lt;/div&gt;" style="text;strokeColor=none;fillColor=none;spacingLeft=4;spacingRight=4;overflow=hidden;rotatable=0;points=[[0,0.5],[1,0.5]];portConstraint=eastwest;fontSize=12;whiteSpace=wrap;html=1;" vertex="1" parent="EtBy-Q-BPnMr8KXIXcHw-50">
          <mxGeometry y="96" width="160" height="30" as="geometry" />
        </mxCell>
        <mxCell id="EtBy-Q-BPnMr8KXIXcHw-55" value="" style="endArrow=diamond;html=1;rounded=0;dashed=1;dashPattern=1 2;endFill=0;startArrow=oval;startFill=1;exitX=1;exitY=0.5;exitDx=0;exitDy=0;entryX=0;entryY=0.5;entryDx=0;entryDy=0;" edge="1" parent="1" source="EtBy-Q-BPnMr8KXIXcHw-21" target="EtBy-Q-BPnMr8KXIXcHw-52">
          <mxGeometry relative="1" as="geometry">
            <mxPoint x="1266" y="1555" as="sourcePoint" />
            <mxPoint x="1266" y="1190" as="targetPoint" />
            <Array as="points" />
          </mxGeometry>
        </mxCell>
        <mxCell id="EtBy-Q-BPnMr8KXIXcHw-56" value="" style="endArrow=diamond;html=1;rounded=0;dashed=1;dashPattern=1 2;endFill=0;startArrow=oval;startFill=1;exitX=1.01;exitY=0.289;exitDx=0;exitDy=0;entryX=0;entryY=0.744;entryDx=0;entryDy=0;entryPerimeter=0;exitPerimeter=0;" edge="1" parent="1" source="EtBy-Q-BPnMr8KXIXcHw-17" target="EtBy-Q-BPnMr8KXIXcHw-46">
          <mxGeometry relative="1" as="geometry">
            <mxPoint x="736" y="1405" as="sourcePoint" />
            <mxPoint x="916" y="1080" as="targetPoint" />
            <Array as="points" />
          </mxGeometry>
        </mxCell>
        <mxCell id="EtBy-Q-BPnMr8KXIXcHw-57" value="" style="endArrow=diamond;html=1;rounded=0;dashed=1;dashPattern=1 2;endFill=0;startArrow=oval;startFill=1;exitX=0;exitY=0.5;exitDx=0;exitDy=0;entryX=1.022;entryY=0.944;entryDx=0;entryDy=0;entryPerimeter=0;" edge="1" parent="1" source="EtBy-Q-BPnMr8KXIXcHw-21" target="EtBy-Q-BPnMr8KXIXcHw-47">
          <mxGeometry relative="1" as="geometry">
            <mxPoint x="1076" y="1545" as="sourcePoint" />
            <mxPoint x="1256" y="1220" as="targetPoint" />
            <Array as="points" />
          </mxGeometry>
        </mxCell>
        <mxCell id="EtBy-Q-BPnMr8KXIXcHw-58" value="" style="endArrow=diamond;html=1;rounded=0;dashed=1;dashPattern=1 2;endFill=0;startArrow=diamond;startFill=0;exitX=1.009;exitY=0.213;exitDx=0;exitDy=0;exitPerimeter=0;entryX=0;entryY=0.5;entryDx=0;entryDy=0;" edge="1" parent="1" source="EtBy-Q-BPnMr8KXIXcHw-40" target="EtBy-Q-BPnMr8KXIXcHw-35">
          <mxGeometry relative="1" as="geometry">
            <mxPoint x="1496" y="1280" as="sourcePoint" />
            <mxPoint x="1516" y="1453.199951171875" as="targetPoint" />
            <Array as="points" />
          </mxGeometry>
        </mxCell>
        <mxCell id="EtBy-Q-BPnMr8KXIXcHw-59" value="" style="endArrow=diamond;html=1;rounded=0;dashed=1;dashPattern=1 2;endFill=0;startArrow=oval;startFill=1;entryX=0.051;entryY=0.678;entryDx=0;entryDy=0;entryPerimeter=0;exitX=1;exitY=0.5;exitDx=0;exitDy=0;" edge="1" parent="1" source="EtBy-Q-BPnMr8KXIXcHw-21" target="EtBy-Q-BPnMr8KXIXcHw-41">
          <mxGeometry relative="1" as="geometry">
            <mxPoint x="1276" y="1360" as="sourcePoint" />
            <mxPoint x="1356" y="1530" as="targetPoint" />
            <Array as="points" />
          </mxGeometry>
        </mxCell>
        <mxCell id="EtBy-Q-BPnMr8KXIXcHw-60" value="Product Categories" style="swimlane;fontStyle=0;childLayout=stackLayout;horizontal=1;startSize=30;horizontalStack=0;resizeParent=1;resizeParentMax=0;resizeLast=0;collapsible=1;marginBottom=0;whiteSpace=wrap;html=1;" vertex="1" parent="1">
          <mxGeometry x="1106" y="1550" width="140" height="90" as="geometry" />
        </mxCell>
        <mxCell id="EtBy-Q-BPnMr8KXIXcHw-61" value="Category ID (PK)" style="text;strokeColor=none;fillColor=none;align=left;verticalAlign=middle;spacingLeft=4;spacingRight=4;overflow=hidden;points=[[0,0.5],[1,0.5]];portConstraint=eastwest;rotatable=0;whiteSpace=wrap;html=1;" vertex="1" parent="EtBy-Q-BPnMr8KXIXcHw-60">
          <mxGeometry y="30" width="140" height="30" as="geometry" />
        </mxCell>
        <mxCell id="EtBy-Q-BPnMr8KXIXcHw-62" value="Category Name" style="text;strokeColor=none;fillColor=none;align=left;verticalAlign=middle;spacingLeft=4;spacingRight=4;overflow=hidden;points=[[0,0.5],[1,0.5]];portConstraint=eastwest;rotatable=0;whiteSpace=wrap;html=1;" vertex="1" parent="EtBy-Q-BPnMr8KXIXcHw-60">
          <mxGeometry y="60" width="140" height="30" as="geometry" />
        </mxCell>
        <mxCell id="EtBy-Q-BPnMr8KXIXcHw-63" value="" style="endArrow=none;html=1;rounded=0;entryX=0.993;entryY=0.992;entryDx=0;entryDy=0;entryPerimeter=0;" edge="1" parent="EtBy-Q-BPnMr8KXIXcHw-60" target="EtBy-Q-BPnMr8KXIXcHw-61">
          <mxGeometry width="50" height="50" relative="1" as="geometry">
            <mxPoint y="60" as="sourcePoint" />
            <mxPoint x="100" y="-110" as="targetPoint" />
          </mxGeometry>
        </mxCell>
        <mxCell id="EtBy-Q-BPnMr8KXIXcHw-64" value="" style="endArrow=oval;html=1;rounded=0;dashed=1;dashPattern=1 2;exitX=0;exitY=0.5;exitDx=0;exitDy=0;entryX=0;entryY=0.5;entryDx=0;entryDy=0;startArrow=diamond;startFill=0;endFill=1;" edge="1" parent="1" source="EtBy-Q-BPnMr8KXIXcHw-22" target="EtBy-Q-BPnMr8KXIXcHw-61">
          <mxGeometry relative="1" as="geometry">
            <mxPoint x="1066" y="1490" as="sourcePoint" />
            <mxPoint x="1226" y="1490" as="targetPoint" />
          </mxGeometry>
        </mxCell>
        <mxCell id="EtBy-Q-BPnMr8KXIXcHw-65" value="" style="resizable=0;html=1;whiteSpace=wrap;align=right;verticalAlign=bottom;" connectable="0" vertex="1" parent="EtBy-Q-BPnMr8KXIXcHw-64">
          <mxGeometry x="1" relative="1" as="geometry" />
        </mxCell>
        <mxCell id="EtBy-Q-BPnMr8KXIXcHw-66" value="Payment Methods" style="swimlane;fontStyle=0;childLayout=stackLayout;horizontal=1;startSize=26;horizontalStack=0;resizeParent=1;resizeParentMax=0;resizeLast=0;collapsible=1;marginBottom=0;align=center;fontSize=14;" vertex="1" parent="1">
          <mxGeometry x="646" y="1550" width="160" height="90" as="geometry" />
        </mxCell>
        <mxCell id="EtBy-Q-BPnMr8KXIXcHw-67" value="Payment Method ID (PK)" style="text;strokeColor=none;fillColor=none;spacingLeft=4;spacingRight=4;overflow=hidden;rotatable=0;points=[[0,0.5],[1,0.5]];portConstraint=eastwest;fontSize=12;whiteSpace=wrap;html=1;" vertex="1" parent="EtBy-Q-BPnMr8KXIXcHw-66">
          <mxGeometry y="26" width="160" height="34" as="geometry" />
        </mxCell>
        <mxCell id="EtBy-Q-BPnMr8KXIXcHw-68" value="" style="endArrow=none;html=1;rounded=0;" edge="1" parent="EtBy-Q-BPnMr8KXIXcHw-66">
          <mxGeometry relative="1" as="geometry">
            <mxPoint y="66" as="sourcePoint" />
            <mxPoint x="160" y="66" as="targetPoint" />
          </mxGeometry>
        </mxCell>
        <mxCell id="EtBy-Q-BPnMr8KXIXcHw-69" value="Payment Method Name" style="text;strokeColor=none;fillColor=none;spacingLeft=4;spacingRight=4;overflow=hidden;rotatable=0;points=[[0,0.5],[1,0.5]];portConstraint=eastwest;fontSize=12;whiteSpace=wrap;html=1;" vertex="1" parent="EtBy-Q-BPnMr8KXIXcHw-66">
          <mxGeometry y="60" width="160" height="30" as="geometry" />
        </mxCell>
        <mxCell id="EtBy-Q-BPnMr8KXIXcHw-70" value="" style="endArrow=oval;html=1;rounded=0;dashed=1;dashPattern=1 2;exitX=0;exitY=0.5;exitDx=0;exitDy=0;entryX=1;entryY=0.5;entryDx=0;entryDy=0;startArrow=diamond;startFill=0;endFill=1;" edge="1" parent="1" source="EtBy-Q-BPnMr8KXIXcHw-29" target="EtBy-Q-BPnMr8KXIXcHw-67">
          <mxGeometry relative="1" as="geometry">
            <mxPoint x="756" y="1560" as="sourcePoint" />
            <mxPoint x="916" y="1560" as="targetPoint" />
          </mxGeometry>
        </mxCell>
        <mxCell id="EtBy-Q-BPnMr8KXIXcHw-71" value="" style="resizable=0;html=1;whiteSpace=wrap;align=right;verticalAlign=bottom;" connectable="0" vertex="1" parent="EtBy-Q-BPnMr8KXIXcHw-70">
          <mxGeometry x="1" relative="1" as="geometry" />
        </mxCell>
      </root>
    </mxGraphModel>
  </diagram>
</mxfile>
